<svg xmlns="http://www.w3.org/2000/svg" xmlns:xlink="http://www.w3.org/1999/xlink" version="1.1" x="0px" y="0px" viewBox="0 0 100 125" enable-background="new 0 0 100 100" xml:space="preserve"><g display="none"><polygon display="inline" fill="#000000" points="50,76.062 75.34,86.986 72.777,59.51 91,38.787 64.077,32.733 50,9    35.923,32.733 9,38.787 27.223,59.51 24.66,86.986  "/></g><g><polygon points="50,76.062 75.34,86.986 72.777,59.51 91,38.787 64.077,32.733 50,9 35.923,32.733 9,38.787 27.223,59.51    24.66,86.986  "/></g><g display="none"><polygon display="inline" fill="#000000" stroke="#E00C02" stroke-width="4" stroke-miterlimit="10" points="50,76.062 75.34,86.986    72.777,59.51 91,38.787 64.077,32.733 50,9 35.923,32.733 9,38.787 27.223,59.51 24.66,86.986  "/></g><g display="none"><path display="inline" d="M77.645,90.158L50,78.239L22.355,90.158l2.796-29.976L5.271,37.575l29.371-6.604L50,5.079l15.357,25.893   l29.371,6.604l-19.88,22.607L77.645,90.158z M50,73.884l23.035,9.931l-2.329-24.978l16.565-18.838l-24.475-5.504L50,12.92   L37.203,34.495l-24.475,5.504l16.565,18.838l-2.329,24.978L50,73.884z"/></g><text x="0" y="115" fill="#000000" font-size="5px" font-weight="bold" font-family="'Helvetica Neue', Helvetica, Arial-Unicode, Arial, Sans-serif">Created by Yuri Mazursky</text><text x="0" y="120" fill="#000000" font-size="5px" font-weight="bold" font-family="'Helvetica Neue', Helvetica, Arial-Unicode, Arial, Sans-serif">from the Noun Project</text></svg>